<svg width="84" height="10" viewBox="0 0 84 10" fill="none" xmlns="http://www.w3.org/2000/svg">
<path d="M4.2832 9.11719C3.45898 9.11719 2.74805 8.92383 2.15039 8.53711C1.55664 8.15039 1.12305 7.66992 0.849609 7.0957C0.580078 6.51758 0.445312 5.89258 0.445312 5.2207C0.445312 3.93164 0.869141 2.89844 1.7168 2.12109C2.45898 1.44141 3.31836 1.10156 4.29492 1.10156C4.86914 1.10156 5.42969 1.19141 5.97656 1.37109C6.52734 1.54688 6.84375 1.63867 6.92578 1.64648C7.0625 2.48633 7.15039 3.10547 7.18945 3.50391C7.03711 3.58203 6.9043 3.60156 6.79102 3.5625C6.38477 2.21875 5.50977 1.54688 4.16602 1.54688C3.4668 1.54688 2.82812 1.90234 2.25 2.61328C2.02344 2.89062 1.84766 3.23047 1.72266 3.63281C1.59766 4.03516 1.53516 4.48828 1.53516 4.99219C1.53516 5.60938 1.63086 6.18555 1.82227 6.7207C2.01367 7.25586 2.32227 7.70898 2.74805 8.08008C3.17383 8.44727 3.68164 8.63086 4.27148 8.63086C4.83008 8.63086 5.32812 8.5293 5.76562 8.32617C6.20312 8.11914 6.63281 7.7832 7.05469 7.31836C7.17578 7.31836 7.26758 7.37891 7.33008 7.5C6.50586 8.57812 5.49023 9.11719 4.2832 9.11719Z" fill="black"/>
<path d="M10.3594 9.11719C9.80859 9.11719 9.41211 8.96484 9.16992 8.66016C8.93164 8.35156 8.8125 7.96094 8.8125 7.48828V5.18555C8.8125 4.81055 8.76172 4.5625 8.66016 4.44141C8.5625 4.32031 8.36523 4.24805 8.06836 4.22461C8.03711 4.19336 8.02148 4.13086 8.02148 4.03711C8.02148 3.93945 8.03711 3.86914 8.06836 3.82617C8.66211 3.8418 9.07031 3.84961 9.29297 3.84961C9.49219 3.84961 9.63281 3.8418 9.71484 3.82617C9.77734 3.82617 9.80859 3.85156 9.80859 3.90234C9.77734 4.48828 9.76172 4.90039 9.76172 5.13867V7.31836C9.76172 7.79102 9.85938 8.11523 10.0547 8.29102C10.25 8.4668 10.4727 8.55469 10.7227 8.55469C11.082 8.55469 11.4824 8.36328 11.9238 7.98047C12.0527 7.86719 12.1152 7.71094 12.1113 7.51172V5.19727C12.1113 4.81445 12.0625 4.56055 11.9648 4.43555C11.8711 4.31055 11.6719 4.24023 11.3672 4.22461C11.3281 4.19336 11.3086 4.13086 11.3086 4.03711C11.3086 3.93945 11.3281 3.86914 11.3672 3.82617C11.9609 3.8418 12.3691 3.84961 12.5918 3.84961C12.791 3.84961 12.9316 3.8418 13.0137 3.82617C13.0762 3.82617 13.1074 3.85156 13.1074 3.90234C13.0762 4.48828 13.0605 4.90039 13.0605 5.13867V7.44141C13.0605 7.75391 13.1152 7.9707 13.2246 8.0918C13.334 8.20898 13.5723 8.2832 13.9395 8.31445C13.9785 8.35352 13.998 8.41016 13.998 8.48438C13.998 8.55469 13.9785 8.60742 13.9395 8.64258C13.2676 8.7207 12.7832 8.87891 12.4863 9.11719C12.3965 9.14062 12.3203 9.14062 12.2578 9.11719C12.168 8.82812 12.123 8.59375 12.123 8.41406C12.123 8.32422 12.0762 8.32031 11.9824 8.40234C11.3965 8.87891 10.8555 9.11719 10.3594 9.11719Z" fill="black"/>
<path d="M16.2832 4.70508C16.2832 4.74414 16.2891 4.77148 16.3008 4.78711C16.3125 4.80273 16.3379 4.7832 16.377 4.72852C16.5371 4.45508 16.7344 4.2207 16.9688 4.02539C17.207 3.83008 17.4531 3.73242 17.707 3.73242C17.9375 3.73242 18.1152 3.79492 18.2402 3.91992C18.3652 4.04102 18.4277 4.16992 18.4277 4.30664C18.4277 4.45898 18.3691 4.59766 18.252 4.72266C18.1387 4.84766 18.0098 4.91016 17.8652 4.91016C17.8105 4.91016 17.7539 4.89648 17.6953 4.86914C17.6406 4.83789 17.5996 4.80859 17.5723 4.78125C17.5449 4.75391 17.5078 4.71484 17.4609 4.66406C17.418 4.60938 17.3887 4.57422 17.373 4.55859C17.3184 4.50391 17.2344 4.47656 17.1211 4.47656C17.0234 4.47656 16.8398 4.67188 16.5703 5.0625C16.3789 5.35156 16.2832 5.61914 16.2832 5.86523V7.53516C16.2832 8.01562 16.3359 8.31055 16.4414 8.41992C16.5508 8.52539 16.8262 8.5957 17.2676 8.63086C17.3066 8.66992 17.3262 8.73828 17.3262 8.83594C17.3262 8.92969 17.3066 8.99219 17.2676 9.02344C16.5801 9.00781 16.0957 9 15.8145 9C15.5762 9 15.1191 9.00781 14.4434 9.02344C14.4121 8.99219 14.3965 8.92969 14.3965 8.83594C14.3965 8.73828 14.4121 8.66992 14.4434 8.63086C14.834 8.60742 15.0801 8.53906 15.1816 8.42578C15.2832 8.3125 15.334 8.01562 15.334 7.53516V5.19727C15.334 4.86133 15.2871 4.65039 15.1934 4.56445C15.1035 4.47461 14.8906 4.41406 14.5547 4.38281C14.5078 4.24609 14.5 4.13281 14.5312 4.04297C15.1562 3.96484 15.6602 3.84961 16.043 3.69727C16.1055 3.69727 16.1523 3.72852 16.1836 3.79102C16.25 3.93555 16.2832 4.24023 16.2832 4.70508Z" fill="black"/>
<path d="M20.7715 4.70508C20.7715 4.74414 20.7773 4.77148 20.7891 4.78711C20.8008 4.80273 20.8262 4.7832 20.8652 4.72852C21.0254 4.45508 21.2227 4.2207 21.457 4.02539C21.6953 3.83008 21.9414 3.73242 22.1953 3.73242C22.4258 3.73242 22.6035 3.79492 22.7285 3.91992C22.8535 4.04102 22.916 4.16992 22.916 4.30664C22.916 4.45898 22.8574 4.59766 22.7402 4.72266C22.627 4.84766 22.498 4.91016 22.3535 4.91016C22.2988 4.91016 22.2422 4.89648 22.1836 4.86914C22.1289 4.83789 22.0879 4.80859 22.0605 4.78125C22.0332 4.75391 21.9961 4.71484 21.9492 4.66406C21.9062 4.60938 21.877 4.57422 21.8613 4.55859C21.8066 4.50391 21.7227 4.47656 21.6094 4.47656C21.5117 4.47656 21.3281 4.67188 21.0586 5.0625C20.8672 5.35156 20.7715 5.61914 20.7715 5.86523V7.53516C20.7715 8.01562 20.8242 8.31055 20.9297 8.41992C21.0391 8.52539 21.3145 8.5957 21.7559 8.63086C21.7949 8.66992 21.8145 8.73828 21.8145 8.83594C21.8145 8.92969 21.7949 8.99219 21.7559 9.02344C21.0684 9.00781 20.584 9 20.3027 9C20.0645 9 19.6074 9.00781 18.9316 9.02344C18.9004 8.99219 18.8848 8.92969 18.8848 8.83594C18.8848 8.73828 18.9004 8.66992 18.9316 8.63086C19.3223 8.60742 19.5684 8.53906 19.6699 8.42578C19.7715 8.3125 19.8223 8.01562 19.8223 7.53516V5.19727C19.8223 4.86133 19.7754 4.65039 19.6816 4.56445C19.5918 4.47461 19.3789 4.41406 19.043 4.38281C18.9961 4.24609 18.9883 4.13281 19.0195 4.04297C19.6445 3.96484 20.1484 3.84961 20.5312 3.69727C20.5938 3.69727 20.6406 3.72852 20.6719 3.79102C20.7383 3.93555 20.7715 4.24023 20.7715 4.70508Z" fill="black"/>
<path d="M24.1641 1.81055C24.1641 1.66602 24.2324 1.53516 24.3691 1.41797C24.5059 1.29688 24.6465 1.23633 24.791 1.23633C24.9434 1.23633 25.0762 1.30273 25.1895 1.43555C25.3066 1.56836 25.3652 1.70898 25.3652 1.85742C25.3652 1.99414 25.3008 2.125 25.1719 2.25C25.0469 2.375 24.9043 2.4375 24.7441 2.4375C24.5996 2.4375 24.4668 2.37109 24.3457 2.23828C24.2246 2.10547 24.1641 1.96289 24.1641 1.81055ZM25.2598 7.53516C25.2598 8.01562 25.3066 8.3125 25.4004 8.42578C25.498 8.53516 25.7383 8.60352 26.1211 8.63086C26.1602 8.66992 26.1797 8.73828 26.1797 8.83594C26.1797 8.92969 26.1602 8.99219 26.1211 9.02344C25.4336 9.00781 24.9902 9 24.791 9C24.5684 9 24.1191 9.00781 23.4434 9.02344C23.4121 8.99219 23.3965 8.92969 23.3965 8.83594C23.3965 8.73828 23.4121 8.66992 23.4434 8.63086C23.8262 8.59961 24.0664 8.5293 24.1641 8.41992C24.2617 8.31055 24.3105 8.01562 24.3105 7.53516V5.19727C24.3105 4.86133 24.2637 4.65039 24.1699 4.56445C24.0801 4.47461 23.8672 4.41406 23.5312 4.38281C23.4844 4.24609 23.4766 4.13281 23.5078 4.04297C24.25 3.94531 24.7969 3.83008 25.1484 3.69727C25.2539 3.69727 25.3066 3.72461 25.3066 3.7793C25.3066 3.79883 25.3047 3.82812 25.3008 3.86719C25.2969 3.90234 25.293 3.97656 25.2891 4.08984C25.2852 4.19922 25.2793 4.30664 25.2715 4.41211C25.2676 4.51367 25.2637 4.63281 25.2598 4.76953C25.2598 4.90625 25.2598 5.03125 25.2598 5.14453V7.53516Z" fill="black"/>
<path d="M31.1191 7.91016C30.8379 8.375 30.541 8.69336 30.2285 8.86523C29.9199 9.0332 29.5645 9.11719 29.1621 9.11719C28.4199 9.11719 27.8379 8.88086 27.416 8.4082C26.998 7.93164 26.7891 7.29688 26.7891 6.50391C26.7891 5.69531 27.041 5.03125 27.5449 4.51172C28.0488 3.99219 28.6172 3.73242 29.25 3.73242C29.8164 3.73242 30.2637 3.83789 30.5918 4.04883C30.9199 4.25977 31.084 4.5332 31.084 4.86914C31.084 5.03711 31.0215 5.16797 30.8965 5.26172C30.7715 5.35547 30.6387 5.40234 30.498 5.40234C30.2246 5.40234 30.0723 5.25781 30.041 4.96875C30.0254 4.79297 29.998 4.65625 29.959 4.55859C29.9238 4.45703 29.8418 4.36133 29.7129 4.27148C29.5879 4.17773 29.4121 4.13086 29.1855 4.13086C28.7871 4.13086 28.459 4.32031 28.2012 4.69922C27.9473 5.07812 27.8203 5.5918 27.8203 6.24023C27.8203 6.92773 27.9766 7.48242 28.2891 7.9043C28.6016 8.32227 28.9805 8.53125 29.4258 8.53125C29.9766 8.53125 30.457 8.26758 30.8672 7.74023C30.9961 7.75586 31.0801 7.8125 31.1191 7.91016Z" fill="black"/>
<path d="M34.0781 9.11719C33.5273 9.11719 33.1309 8.96484 32.8887 8.66016C32.6504 8.35156 32.5312 7.96094 32.5312 7.48828V5.18555C32.5312 4.81055 32.4805 4.5625 32.3789 4.44141C32.2812 4.32031 32.084 4.24805 31.7871 4.22461C31.7559 4.19336 31.7402 4.13086 31.7402 4.03711C31.7402 3.93945 31.7559 3.86914 31.7871 3.82617C32.3809 3.8418 32.7891 3.84961 33.0117 3.84961C33.2109 3.84961 33.3516 3.8418 33.4336 3.82617C33.4961 3.82617 33.5273 3.85156 33.5273 3.90234C33.4961 4.48828 33.4805 4.90039 33.4805 5.13867V7.31836C33.4805 7.79102 33.5781 8.11523 33.7734 8.29102C33.9688 8.4668 34.1914 8.55469 34.4414 8.55469C34.8008 8.55469 35.2012 8.36328 35.6426 7.98047C35.7715 7.86719 35.834 7.71094 35.8301 7.51172V5.19727C35.8301 4.81445 35.7812 4.56055 35.6836 4.43555C35.5898 4.31055 35.3906 4.24023 35.0859 4.22461C35.0469 4.19336 35.0273 4.13086 35.0273 4.03711C35.0273 3.93945 35.0469 3.86914 35.0859 3.82617C35.6797 3.8418 36.0879 3.84961 36.3105 3.84961C36.5098 3.84961 36.6504 3.8418 36.7324 3.82617C36.7949 3.82617 36.8262 3.85156 36.8262 3.90234C36.7949 4.48828 36.7793 4.90039 36.7793 5.13867V7.44141C36.7793 7.75391 36.834 7.9707 36.9434 8.0918C37.0527 8.20898 37.291 8.2832 37.6582 8.31445C37.6973 8.35352 37.7168 8.41016 37.7168 8.48438C37.7168 8.55469 37.6973 8.60742 37.6582 8.64258C36.9863 8.7207 36.502 8.87891 36.2051 9.11719C36.1152 9.14062 36.0391 9.14062 35.9766 9.11719C35.8867 8.82812 35.8418 8.59375 35.8418 8.41406C35.8418 8.32422 35.7949 8.32031 35.7012 8.40234C35.1152 8.87891 34.5742 9.11719 34.0781 9.11719Z" fill="black"/>
<path d="M38.9941 7.53516V2.29102C38.9941 2.0332 38.9863 1.8418 38.9707 1.7168C38.959 1.58789 38.9082 1.49414 38.8184 1.43555C38.7324 1.37305 38.666 1.33984 38.6191 1.33594C38.5723 1.33203 38.4395 1.32227 38.2207 1.30664C38.1309 1.2168 38.1074 1.09766 38.1504 0.949219C38.8613 0.894531 39.4219 0.785156 39.832 0.621094C39.9375 0.621094 39.9902 0.662109 39.9902 0.744141C39.959 1.06445 39.9414 1.48438 39.9375 2.00391V7.53516C39.9375 8.01562 39.9883 8.31445 40.0898 8.43164C40.1914 8.54492 40.4297 8.61133 40.8047 8.63086C40.8359 8.66992 40.8516 8.73828 40.8516 8.83594C40.8516 8.92969 40.8359 8.99219 40.8047 9.02344C40.1172 9.00781 39.6719 9 39.4688 9C39.2461 9 38.7988 9.00781 38.127 9.02344C38.0879 8.99219 38.0684 8.92969 38.0684 8.83594C38.0684 8.73828 38.0879 8.66992 38.127 8.63086C38.502 8.61523 38.7402 8.54883 38.8418 8.43164C38.9434 8.31445 38.9941 8.01562 38.9941 7.53516Z" fill="black"/>
<path d="M43.6172 9.11719C43.0664 9.11719 42.6699 8.96484 42.4277 8.66016C42.1895 8.35156 42.0703 7.96094 42.0703 7.48828V5.18555C42.0703 4.81055 42.0195 4.5625 41.918 4.44141C41.8203 4.32031 41.623 4.24805 41.3262 4.22461C41.2949 4.19336 41.2793 4.13086 41.2793 4.03711C41.2793 3.93945 41.2949 3.86914 41.3262 3.82617C41.9199 3.8418 42.3281 3.84961 42.5508 3.84961C42.75 3.84961 42.8906 3.8418 42.9727 3.82617C43.0352 3.82617 43.0664 3.85156 43.0664 3.90234C43.0352 4.48828 43.0195 4.90039 43.0195 5.13867V7.31836C43.0195 7.79102 43.1172 8.11523 43.3125 8.29102C43.5078 8.4668 43.7305 8.55469 43.9805 8.55469C44.3398 8.55469 44.7402 8.36328 45.1816 7.98047C45.3105 7.86719 45.373 7.71094 45.3691 7.51172V5.19727C45.3691 4.81445 45.3203 4.56055 45.2227 4.43555C45.1289 4.31055 44.9297 4.24023 44.625 4.22461C44.5859 4.19336 44.5664 4.13086 44.5664 4.03711C44.5664 3.93945 44.5859 3.86914 44.625 3.82617C45.2188 3.8418 45.627 3.84961 45.8496 3.84961C46.0488 3.84961 46.1895 3.8418 46.2715 3.82617C46.334 3.82617 46.3652 3.85156 46.3652 3.90234C46.334 4.48828 46.3184 4.90039 46.3184 5.13867V7.44141C46.3184 7.75391 46.373 7.9707 46.4824 8.0918C46.5918 8.20898 46.8301 8.2832 47.1973 8.31445C47.2363 8.35352 47.2559 8.41016 47.2559 8.48438C47.2559 8.55469 47.2363 8.60742 47.1973 8.64258C46.5254 8.7207 46.041 8.87891 45.7441 9.11719C45.6543 9.14062 45.5781 9.14062 45.5156 9.11719C45.4258 8.82812 45.3809 8.59375 45.3809 8.41406C45.3809 8.32422 45.334 8.32031 45.2402 8.40234C44.6543 8.87891 44.1133 9.11719 43.6172 9.11719Z" fill="black"/>
<path d="M49.4648 4.70508C49.4648 4.80273 49.4922 4.8125 49.5469 4.73438C49.5586 4.72266 49.5684 4.71289 49.5762 4.70508C50.1934 4.05664 50.8008 3.73242 51.3984 3.73242C51.7031 3.73242 51.9648 3.81641 52.1836 3.98438C52.4023 4.14844 52.541 4.35742 52.5996 4.61133C52.6191 4.68945 52.6621 4.69141 52.7285 4.61719C52.9277 4.40625 53.1465 4.23242 53.3848 4.0957C53.623 3.95898 53.8496 3.86523 54.0645 3.81445C54.2793 3.75977 54.4941 3.73242 54.709 3.73242C55.1973 3.73242 55.5254 3.89648 55.6934 4.22461C55.8613 4.55273 55.9453 5.02539 55.9453 5.64258V7.53516C55.9453 8.01562 55.9863 8.3125 56.0684 8.42578C56.1543 8.53516 56.3691 8.60352 56.7129 8.63086C56.7441 8.66211 56.7598 8.72656 56.7598 8.82422C56.7598 8.91797 56.7441 8.98438 56.7129 9.02344C56.0254 9.00781 55.6133 9 55.4766 9C55.332 9 54.9238 9.00781 54.252 9.02344C54.2207 8.98438 54.2051 8.91797 54.2051 8.82422C54.2051 8.72656 54.2207 8.66211 54.252 8.63086C54.5801 8.60742 54.7852 8.53711 54.8672 8.41992C54.9531 8.30273 54.9961 8.00781 54.9961 7.53516V5.42578C54.9961 5.04297 54.9355 4.76953 54.8145 4.60547C54.6973 4.4375 54.5195 4.35352 54.2812 4.35352C53.707 4.35352 53.1777 4.61914 52.6934 5.15039C52.7012 5.24805 52.7051 5.4082 52.7051 5.63086V7.53516C52.7051 8.01562 52.7441 8.3125 52.8223 8.42578C52.9043 8.53516 53.1016 8.60352 53.4141 8.63086C53.4453 8.66211 53.4609 8.72852 53.4609 8.83008C53.4609 8.92773 53.4453 8.99219 53.4141 9.02344C52.7266 9.00781 52.334 9 52.2363 9C52.0918 9 51.6836 9.00781 51.0117 9.02344C50.9805 8.99219 50.9648 8.92969 50.9648 8.83594C50.9648 8.73828 50.9805 8.66992 51.0117 8.63086C51.3477 8.60742 51.5547 8.53906 51.6328 8.42578C51.7148 8.3125 51.7559 8.01562 51.7559 7.53516V5.44922C51.7559 4.72266 51.4922 4.35742 50.9648 4.35352C50.582 4.35352 50.1504 4.58984 49.6699 5.0625C49.5332 5.20703 49.4648 5.375 49.4648 5.56641V7.53516C49.4648 7.87109 49.4844 8.10938 49.5234 8.25C49.5664 8.39062 49.6309 8.48438 49.7168 8.53125C49.8027 8.57422 49.959 8.60742 50.1855 8.63086C50.2207 8.66602 50.2383 8.73242 50.2383 8.83008C50.2383 8.92383 50.2207 8.98828 50.1855 9.02344C49.5137 9.00781 49.1172 9 48.9961 9C48.7891 9 48.3574 9.00781 47.7012 9.02344C47.6699 8.99219 47.6543 8.92969 47.6543 8.83594C47.6543 8.73828 47.6699 8.66992 47.7012 8.63086C48.0527 8.60742 48.2773 8.53711 48.375 8.41992C48.4727 8.30273 48.5215 8.00781 48.5215 7.53516V5.19727C48.5215 4.86133 48.4746 4.65039 48.3809 4.56445C48.2871 4.47461 48.0723 4.41406 47.7363 4.38281C47.6895 4.24609 47.6816 4.13281 47.7129 4.04297C48.3379 3.96484 48.8418 3.84961 49.2246 3.69727C49.2871 3.69727 49.3359 3.72852 49.3711 3.79102C49.4336 3.93555 49.4648 4.24023 49.4648 4.70508Z" fill="black"/>
<path d="M63.7734 4.22461C63.7344 4.19336 63.7129 4.13086 63.709 4.03711C63.709 3.93945 63.7305 3.86914 63.7734 3.82617C64.3672 3.8418 64.75 3.84961 64.9219 3.84961C65.0977 3.84961 65.3613 3.8418 65.7129 3.82617C65.752 3.86523 65.7715 3.93359 65.7715 4.03125C65.7754 4.12891 65.7559 4.19336 65.7129 4.22461C65.5488 4.24023 65.4121 4.26758 65.3027 4.30664C65.1973 4.3457 65.1055 4.41211 65.0273 4.50586C64.9492 4.5957 64.8906 4.67773 64.8516 4.75195C64.8125 4.82617 64.7578 4.94531 64.6875 5.10938L63.0879 8.86523C63.0098 9.04883 62.9141 9.14258 62.8008 9.14648C62.6641 9.14648 62.5645 9.0625 62.502 8.89453L60.9668 5.09766C60.9551 5.07031 60.9414 5.03516 60.9258 4.99219C60.8125 4.70312 60.7051 4.51172 60.6035 4.41797C60.5059 4.32422 60.3066 4.25977 60.0059 4.22461C59.9668 4.19336 59.9453 4.13086 59.9414 4.03711C59.9414 3.93945 59.9629 3.86914 60.0059 3.82617C60.5996 3.8418 60.9512 3.84961 61.0605 3.84961C61.3184 3.84961 61.7422 3.8418 62.332 3.82617C62.3711 3.86523 62.3906 3.93359 62.3906 4.03125C62.3906 4.12891 62.3711 4.19336 62.332 4.22461C62.2383 4.23242 62.1582 4.24414 62.0918 4.25977C62.0293 4.27148 61.9746 4.2832 61.9277 4.29492C61.8809 4.30273 61.8477 4.32422 61.8281 4.35938C61.8125 4.39453 61.7969 4.41992 61.7812 4.43555C61.7695 4.44727 61.7715 4.48242 61.7871 4.54102C61.8027 4.59961 61.8125 4.64062 61.8164 4.66406C61.8242 4.6875 61.8457 4.74414 61.8809 4.83398C61.916 4.92383 61.9414 4.98828 61.957 5.02734L62.8242 7.3418C62.9219 7.58789 62.9961 7.7168 63.0469 7.72852C63.0977 7.73633 63.1719 7.62109 63.2695 7.38281L64.2363 5.02734C64.3652 4.72266 64.4004 4.51953 64.3418 4.41797C64.2832 4.3125 64.0938 4.24805 63.7734 4.22461Z" fill="black"/>
<path d="M66.9141 1.81055C66.9141 1.66602 66.9824 1.53516 67.1191 1.41797C67.2559 1.29688 67.3965 1.23633 67.541 1.23633C67.6934 1.23633 67.8262 1.30273 67.9395 1.43555C68.0566 1.56836 68.1152 1.70898 68.1152 1.85742C68.1152 1.99414 68.0508 2.125 67.9219 2.25C67.7969 2.375 67.6543 2.4375 67.4941 2.4375C67.3496 2.4375 67.2168 2.37109 67.0957 2.23828C66.9746 2.10547 66.9141 1.96289 66.9141 1.81055ZM68.0098 7.53516C68.0098 8.01562 68.0566 8.3125 68.1504 8.42578C68.248 8.53516 68.4883 8.60352 68.8711 8.63086C68.9102 8.66992 68.9297 8.73828 68.9297 8.83594C68.9297 8.92969 68.9102 8.99219 68.8711 9.02344C68.1836 9.00781 67.7402 9 67.541 9C67.3184 9 66.8691 9.00781 66.1934 9.02344C66.1621 8.99219 66.1465 8.92969 66.1465 8.83594C66.1465 8.73828 66.1621 8.66992 66.1934 8.63086C66.5762 8.59961 66.8164 8.5293 66.9141 8.41992C67.0117 8.31055 67.0605 8.01562 67.0605 7.53516V5.19727C67.0605 4.86133 67.0137 4.65039 66.9199 4.56445C66.8301 4.47461 66.6172 4.41406 66.2812 4.38281C66.2344 4.24609 66.2266 4.13281 66.2578 4.04297C67 3.94531 67.5469 3.83008 67.8984 3.69727C68.0039 3.69727 68.0566 3.72461 68.0566 3.7793C68.0566 3.79883 68.0547 3.82812 68.0508 3.86719C68.0469 3.90234 68.043 3.97656 68.0391 4.08984C68.0352 4.19922 68.0293 4.30664 68.0215 4.41211C68.0176 4.51367 68.0137 4.63281 68.0098 4.76953C68.0098 4.90625 68.0098 5.03125 68.0098 5.14453V7.53516Z" fill="black"/>
<path d="M69.6094 3.84961H70.1602C70.1602 3.60352 70.1582 3.39258 70.1543 3.2168C70.1543 3.03711 70.1523 2.90625 70.1484 2.82422C70.1445 2.74219 70.1406 2.67773 70.1367 2.63086C70.1328 2.58398 70.1289 2.54883 70.125 2.52539C70.125 2.50195 70.125 2.48047 70.125 2.46094C70.125 2.43359 70.1406 2.4082 70.1719 2.38477C70.2031 2.36133 70.2363 2.34375 70.2715 2.33203C70.3105 2.32031 70.3613 2.30469 70.4238 2.28516C70.4902 2.26562 70.543 2.24805 70.582 2.23242C70.6289 2.21289 70.6895 2.18359 70.7637 2.14453C70.8379 2.10547 70.9004 2.07422 70.9512 2.05078C71.002 2.02734 71.0391 2.01562 71.0625 2.01562C71.125 2.01562 71.1562 2.05078 71.1562 2.12109C71.125 2.44141 71.1094 2.86328 71.1094 3.38672V3.84961H72.5508C72.6133 3.84961 72.6445 3.875 72.6445 3.92578V4.16602C72.6445 4.27148 72.5488 4.32227 72.3574 4.31836H71.1094V7.35352C71.1094 7.74414 71.1367 8.02734 71.1914 8.20312C71.25 8.375 71.3555 8.46094 71.5078 8.46094C71.875 8.46094 72.2031 8.34766 72.4922 8.12109C72.6133 8.12891 72.6836 8.19727 72.7031 8.32617C72.2305 8.85352 71.6914 9.11719 71.0859 9.11719C70.4688 9.11719 70.1602 8.72266 70.1602 7.93359V4.31836H69.4512C69.4121 4.31836 69.3926 4.29492 69.3926 4.24805V4.08984C69.3926 3.92969 69.4648 3.84961 69.6094 3.84961Z" fill="black"/>
<path d="M76.4062 6.20508L75.457 6.45703C74.6953 6.64844 74.3164 7.08789 74.3203 7.77539C74.3203 7.99023 74.3926 8.1875 74.5371 8.36719C74.6855 8.54297 74.9004 8.63086 75.1816 8.63086C75.4629 8.63086 75.8145 8.45703 76.2363 8.10938C76.3496 8.03125 76.4062 7.92773 76.4062 7.79883V6.20508ZM76.4062 8.42578H76.3828L76.1426 8.61328C75.877 8.82031 75.6602 8.95508 75.4922 9.01758C75.3242 9.08398 75.1055 9.11719 74.8359 9.11719C74.3789 9.11719 74.0117 9.01367 73.7344 8.80664C73.4609 8.59961 73.3242 8.27148 73.3242 7.82227C73.3242 7.42383 73.5059 7.07227 73.8691 6.76758C74.2324 6.46289 74.7109 6.23438 75.3047 6.08203L76.3359 5.83008C76.3828 5.81445 76.4062 5.76758 76.4062 5.68945C76.4062 4.65039 76.082 4.13086 75.4336 4.13086C75.168 4.13086 74.9355 4.17383 74.7363 4.25977C74.5371 4.3418 74.4375 4.4668 74.4375 4.63477C74.4375 4.74805 74.4453 4.82617 74.4609 4.86914C74.4844 4.91602 74.4961 4.98828 74.4961 5.08594C74.4961 5.17578 74.4473 5.26562 74.3496 5.35547C74.2559 5.44141 74.1289 5.48438 73.9688 5.48438C73.6875 5.48438 73.5488 5.34375 73.5527 5.0625C73.5527 4.73438 73.7598 4.43164 74.1738 4.1543C74.5918 3.87305 75.0449 3.73242 75.5332 3.73242C76.7402 3.73242 77.3438 4.4082 77.3438 5.75977V7.54688C77.3438 7.77734 77.3496 7.95312 77.3613 8.07422C77.373 8.19531 77.416 8.30859 77.4902 8.41406C77.5684 8.51562 77.6797 8.56641 77.8242 8.56641C77.9219 8.56641 78.0059 8.53516 78.0762 8.47266C78.1465 8.41016 78.1855 8.37891 78.1934 8.37891C78.2168 8.37891 78.248 8.40234 78.2871 8.44922C78.3301 8.49609 78.3516 8.53906 78.3516 8.57812C78.3516 8.60156 78.3086 8.65625 78.2227 8.74219C78.1406 8.82422 78.0156 8.9082 77.8477 8.99414C77.6797 9.07617 77.5078 9.11719 77.332 9.11719C76.8516 9.12109 76.543 8.89062 76.4062 8.42578Z" fill="black"/>
<path d="M79.8633 5.61328L82.0371 5.57812C82.1582 5.57812 82.2168 5.52344 82.2129 5.41406C82.2129 4.95703 82.1152 4.63281 81.9199 4.44141C81.7246 4.25 81.4902 4.1543 81.2168 4.1543C81.1113 4.1543 81.0078 4.16797 80.9062 4.19531C80.8047 4.22266 80.6797 4.28125 80.5312 4.37109C80.3828 4.45703 80.248 4.60742 80.127 4.82227C80.0059 5.03711 79.918 5.30078 79.8633 5.61328ZM83.0098 7.88672C83.1465 7.89453 83.2305 7.95703 83.2617 8.07422C82.7266 8.76953 82.0449 9.11719 81.2168 9.11719C80.4238 9.11719 79.8125 8.86133 79.3828 8.34961C79.0078 7.91602 78.8203 7.32422 78.8203 6.57422C78.8203 5.72656 79.0742 5.04492 79.582 4.5293C80.0898 4.01367 80.6348 3.75586 81.2168 3.75586C82.5684 3.75586 83.2441 4.45117 83.2441 5.8418C83.2441 5.97852 83.1699 6.04688 83.0215 6.04688L79.8281 6.02344C79.8281 6.69531 79.9551 7.24414 80.209 7.66992C80.5605 8.24414 80.998 8.53125 81.5215 8.53125C81.8574 8.53125 82.1309 8.48438 82.3418 8.39062C82.5566 8.29297 82.7793 8.125 83.0098 7.88672Z" fill="black"/>
</svg>
