<svg width="72" height="9" viewBox="0 0 72 9" fill="none" xmlns="http://www.w3.org/2000/svg">
<path fill-rule="evenodd" clip-rule="evenodd" d="M0.805298 7.80458V8.01559H3.229V7.80458C3.18262 7.79697 3.14978 7.79127 3.13037 7.78747C2.86365 7.74564 2.67432 7.67436 2.56213 7.57361C2.45007 7.47285 2.39404 7.36735 2.39404 7.2571C2.39404 7.12382 2.48547 6.90864 2.61169 6.61157C2.64758 6.52728 2.68628 6.4364 2.72644 6.33892L4.66919 1.8621L5.90198 4.46902L4.81531 6.6868C4.65686 7.07079 4.41528 7.35594 4.21045 7.54224C4.06738 7.6677 3.85669 7.75515 3.57837 7.80458V8.01559H5.93958V7.80458C5.89319 7.79697 5.86035 7.79127 5.84094 7.78747C5.57422 7.74564 5.44739 7.67436 5.33533 7.57361C5.22327 7.47285 5.16711 7.36735 5.16711 7.2571C5.16711 7.12382 5.25854 6.90864 5.38477 6.61157L5.41309 6.54514C5.44067 6.48004 5.46973 6.4113 5.49951 6.33892L6.17468 5.0458L6.81311 6.39595C6.99084 6.79895 7.07983 7.09551 7.07983 7.28561C7.07983 7.42248 7.02563 7.53463 6.91748 7.62209C6.8092 7.70952 6.63599 7.77036 6.27258 7.80458V8.01559H9.35974V7.80458C9.12012 7.78556 8.99231 7.74279 8.8512 7.67626C8.71008 7.60972 8.59119 7.51752 8.49463 7.39967C8.48584 7.38892 8.47424 7.37552 8.46033 7.35946C8.37585 7.26186 8.20642 7.06616 8.07703 6.77235L6.78137 3.88378L7.83691 1.8621L10.2274 6.39595C10.4053 6.79895 10.4941 7.09551 10.4941 7.28561C10.4941 7.42248 10.4401 7.53463 10.3318 7.62209C10.2235 7.70952 10.0503 7.77036 9.68701 7.80458V8.01559H12.8367V7.80458C12.597 7.78556 12.4066 7.74279 12.2655 7.67626C12.1244 7.60972 12.0056 7.51752 11.9089 7.39967C11.9001 7.38892 11.8885 7.37552 11.8746 7.35946C11.7902 7.26186 11.6207 7.06616 11.4913 6.77235L8.25439 0.105591H8.03979L6.49805 3.25223L5.08667 0.105591H4.87207L2.04224 6.6868C1.88379 7.07079 1.64221 7.35594 1.43726 7.54224C1.29431 7.6677 1.08362 7.75515 0.805298 7.80458ZM47.4961 5.60352C47.4805 5.38477 47.4727 5.10742 47.4727 4.77148V1.72461C47.4727 1.24414 47.5371 0.947266 47.666 0.833984C47.7949 0.716797 48.0996 0.650391 48.5801 0.634766C48.6113 0.599609 48.627 0.535156 48.627 0.441406C48.627 0.34375 48.6113 0.275391 48.5801 0.236328C47.7949 0.251953 47.2539 0.259766 46.957 0.259766C46.8047 0.259766 46.3281 0.251953 45.5273 0.236328C45.4961 0.275391 45.4805 0.34375 45.4805 0.441406C45.4805 0.539062 45.4961 0.603516 45.5273 0.634766C45.9141 0.650391 46.1641 0.71875 46.2773 0.839844C46.3945 0.957031 46.4531 1.25195 46.4531 1.72461V5.16992C46.4531 5.74414 46.5449 6.23828 46.7285 6.65234C46.9121 7.0625 47.1562 7.36719 47.4609 7.56641C47.7656 7.76562 48.0625 7.9082 48.3516 7.99414C48.6445 8.07617 48.9473 8.11719 49.2598 8.11719C49.8613 8.11719 50.3652 8.0293 50.7715 7.85352C51.1816 7.67773 51.4961 7.41992 51.7148 7.08008C51.9375 6.74023 52.0918 6.36133 52.1777 5.94336C52.2676 5.52148 52.3125 5.02734 52.3125 4.46094V1.72461C52.3125 1.39648 52.3438 1.1582 52.4062 1.00977C52.4688 0.861328 52.5488 0.769531 52.6465 0.734375C52.748 0.699219 52.9434 0.666016 53.2324 0.634766C53.2637 0.599609 53.2793 0.535156 53.2793 0.441406C53.2793 0.34375 53.2637 0.275391 53.2324 0.236328L52.3661 0.253357C52.1436 0.257629 52.0242 0.259766 52.0078 0.259766C51.8828 0.259766 51.4199 0.251953 50.6191 0.236328C50.5879 0.275391 50.5723 0.34375 50.5723 0.441406C50.5723 0.539062 50.5879 0.603516 50.6191 0.634766C50.8887 0.658203 51.0762 0.679688 51.1816 0.699219C51.2871 0.71875 51.3906 0.765625 51.4922 0.839844C51.5977 0.910156 51.6621 1.01172 51.6855 1.14453C51.709 1.27344 51.7207 1.4668 51.7207 1.72461V4.67773C51.7207 4.99805 51.7109 5.27539 51.6914 5.50977C51.6719 5.74414 51.6172 6.00391 51.5273 6.28906C51.4414 6.57422 51.3223 6.80664 51.1699 6.98633C51.0176 7.16602 50.8008 7.31836 50.5195 7.44336C50.2383 7.56836 49.9023 7.63086 49.5117 7.63086C48.9766 7.62695 48.502 7.42578 48.0879 7.02734C47.9043 6.85156 47.7637 6.625 47.666 6.34766C47.5684 6.06641 47.5117 5.81836 47.4961 5.60352ZM20.2559 3.31836H20.9648V6.93359C20.9648 7.72266 21.2734 8.11719 21.8906 8.11719C22.1797 8.11719 22.4551 8.04102 22.7168 7.88867C22.9824 7.73633 23.1953 7.54102 23.3555 7.30273C23.3242 7.18945 23.2598 7.12891 23.1621 7.12109C22.9082 7.34766 22.625 7.46094 22.3125 7.46094C22.1602 7.46094 22.0547 7.375 21.9961 7.20312C21.9414 7.02734 21.9141 6.74414 21.9141 6.35352V3.31836H24.4453V6.93359C24.4453 7.72266 24.752 8.11719 25.3652 8.11719C25.9824 8.11719 26.5234 7.85352 26.9883 7.32617C26.9688 7.19727 26.8984 7.12891 26.7773 7.12109C26.4883 7.34766 26.1602 7.46094 25.793 7.46094C25.6406 7.46094 25.5352 7.375 25.4766 7.20312C25.4219 7.02734 25.3945 6.74414 25.3945 6.35352V3.31836H26.6426C26.834 3.32227 26.9297 3.27148 26.9297 3.16602V2.92578C26.9297 2.875 26.8984 2.84961 26.8359 2.84961H25.3945V2.38672C25.3945 1.86328 25.4102 1.44141 25.4414 1.12109C25.4453 1.04297 25.3945 1.00391 25.2891 1.00391L24.5918 1.32031L24.5635 1.33367L24.5156 1.35547C24.4996 1.36344 24.4857 1.37108 24.4738 1.3784L24.4609 1.38652C24.4496 1.39412 24.4404 1.40135 24.4336 1.4082C24.4219 1.42383 24.418 1.44531 24.4219 1.47266C24.4375 1.64453 24.4453 2.10352 24.4453 2.84961H21.9141V2.50391C21.9141 1.98438 21.9297 1.56445 21.9609 1.24414C21.9648 1.16211 21.9141 1.12109 21.8086 1.12109L21.1113 1.4375C21.1074 1.44141 21.084 1.45508 21.041 1.47852C21.002 1.49805 20.9746 1.51562 20.959 1.53125C20.9434 1.54297 20.9375 1.5625 20.9414 1.58984C20.957 1.76562 20.9648 2.18555 20.9648 2.84961H20.4141C20.2695 2.84961 20.1973 2.92969 20.1973 3.08984V3.24805C20.1973 3.29492 20.2168 3.31836 20.2559 3.31836ZM16.1484 2.65039L14.291 6.74023C14.2129 6.91602 14.1543 7.03906 14.1152 7.10938C14.0801 7.17578 14.0215 7.25781 13.9395 7.35547C13.8613 7.44922 13.7676 7.51562 13.6582 7.55469C13.5527 7.58984 13.4199 7.61523 13.2598 7.63086C13.2285 7.66992 13.2129 7.73828 13.2129 7.83594C13.2129 7.92969 13.2285 7.99219 13.2598 8.02344C13.6113 8.00781 13.875 8 14.0508 8C14.2266 8 14.6113 8.00781 15.2051 8.02344C15.2363 7.99219 15.252 7.92969 15.252 7.83594C15.252 7.73828 15.2363 7.66992 15.2051 7.63086C14.877 7.60352 14.6816 7.53906 14.6191 7.4375C14.5605 7.33203 14.5996 7.12695 14.7363 6.82227L15.0703 6.07812C15.1094 5.99219 15.1973 5.94922 15.334 5.94922H17.3848L17.7363 6.82227C17.8809 7.11133 17.9395 7.3125 17.9121 7.42578C17.8887 7.53906 17.7051 7.60742 17.3613 7.63086C17.3301 7.66992 17.3145 7.73828 17.3145 7.83594C17.3145 7.92969 17.3301 7.99219 17.3613 8.02344C17.9512 8.00781 18.375 8 18.6328 8C18.7422 8 19.0938 8.00781 19.6875 8.02344C19.7227 7.99219 19.7383 7.92969 19.7344 7.83594C19.7344 7.73828 19.7188 7.66992 19.6875 7.63086C19.6172 7.61914 19.5527 7.60742 19.4941 7.5957C19.4395 7.58398 19.3906 7.57422 19.3477 7.56641C19.3047 7.55859 19.2617 7.54102 19.2188 7.51367C19.1797 7.48633 19.1484 7.46875 19.125 7.46094C19.1016 7.45312 19.0742 7.42969 19.043 7.39062L19.0042 7.33753L18.9785 7.30273C18.9668 7.28711 18.9453 7.25 18.9141 7.19141C18.8867 7.12891 18.8691 7.08789 18.8613 7.06836L18.8027 6.92188C18.7715 6.83984 18.748 6.7832 18.7324 6.75195L17.0273 2.63867C16.9453 2.43555 16.7852 2.33398 16.5469 2.33398C16.3789 2.33789 16.2461 2.44336 16.1484 2.65039ZM16.377 3.33008L17.2441 5.53906H15.6328C15.4727 5.53906 15.3926 5.48242 15.3926 5.36914L16.2949 3.3418C16.3105 3.31836 16.3379 3.31445 16.377 3.33008ZM29.5488 3.94531V6.53516C29.5488 7.01562 29.5957 7.3125 29.6895 7.42578C29.7871 7.53516 30.0293 7.60352 30.416 7.63086C30.4551 7.66992 30.4746 7.73828 30.4746 7.83594C30.4746 7.92969 30.4551 7.99219 30.416 8.02344C29.7285 8.00781 29.2832 8 29.0801 8C28.8574 8 28.4102 8.00781 27.7383 8.02344C27.707 7.99219 27.6914 7.92969 27.6914 7.83594C27.6914 7.73828 27.707 7.66992 27.7383 7.63086C28.1211 7.59961 28.3594 7.5293 28.4531 7.41992C28.5508 7.31055 28.5996 7.01562 28.5996 6.53516V3.94531C28.5996 3.46484 28.5508 3.16992 28.4531 3.06055C28.3594 2.94727 28.1211 2.87695 27.7383 2.84961C27.707 2.81055 27.6914 2.74414 27.6914 2.65039C27.6914 2.55273 27.707 2.48828 27.7383 2.45703C28.4258 2.47266 28.8691 2.48047 29.0684 2.48047C29.291 2.48047 29.7402 2.47266 30.416 2.45703C30.4551 2.48828 30.4746 2.55273 30.4746 2.65039C30.4746 2.74414 30.4551 2.81055 30.416 2.84961C30.0332 2.88086 29.793 2.95117 29.6953 3.06055C29.5977 3.16992 29.5488 3.46484 29.5488 3.94531ZM33.9727 2.65039L32.1152 6.74023C32.0371 6.91602 31.9785 7.03906 31.9395 7.10938C31.9043 7.17578 31.8457 7.25781 31.7637 7.35547C31.6855 7.44922 31.5918 7.51562 31.4824 7.55469C31.377 7.58984 31.2441 7.61523 31.084 7.63086C31.0527 7.66992 31.0371 7.73828 31.0371 7.83594C31.0371 7.92969 31.0527 7.99219 31.084 8.02344C31.4355 8.00781 31.6992 8 31.875 8C32.0508 8 32.4355 8.00781 33.0293 8.02344C33.0605 7.99219 33.0762 7.92969 33.0762 7.83594C33.0762 7.73828 33.0605 7.66992 33.0293 7.63086C32.7012 7.60352 32.5059 7.53906 32.4434 7.4375C32.3848 7.33203 32.4238 7.12695 32.5605 6.82227L32.8945 6.07812C32.9336 5.99219 33.0215 5.94922 33.1582 5.94922H35.209L35.5605 6.82227C35.7051 7.11133 35.7637 7.3125 35.7363 7.42578C35.7129 7.53906 35.5293 7.60742 35.1855 7.63086C35.1543 7.66992 35.1387 7.73828 35.1387 7.83594C35.1387 7.92969 35.1543 7.99219 35.1855 8.02344C35.7754 8.00781 36.1992 8 36.457 8C36.5664 8 36.918 8.00781 37.5117 8.02344C37.5469 7.99219 37.5625 7.92969 37.5586 7.83594C37.5586 7.73828 37.543 7.66992 37.5117 7.63086L37.4569 7.62151L37.4191 7.6148L37.3483 7.60159L37.3184 7.5957C37.2637 7.58398 37.2148 7.57422 37.1719 7.56641C37.1289 7.55859 37.0859 7.54102 37.043 7.51367C37.0039 7.48633 36.9727 7.46875 36.9492 7.46094C36.9258 7.45312 36.8984 7.42969 36.8672 7.39062L36.8175 7.32279L36.8027 7.30273C36.791 7.28711 36.7695 7.25 36.7383 7.19141C36.7109 7.12891 36.6934 7.08789 36.6855 7.06836L36.627 6.92188C36.5957 6.83984 36.5723 6.7832 36.5566 6.75195L34.8516 2.63867C34.7695 2.43555 34.6094 2.33398 34.3711 2.33398C34.2031 2.33789 34.0703 2.44336 33.9727 2.65039ZM34.2012 3.33008L35.0684 5.53906H33.457C33.2969 5.53906 33.2168 5.48242 33.2168 5.36914L34.1191 3.3418C34.1243 3.33423 34.1305 3.3287 34.1379 3.3252C34.1416 3.32349 34.1456 3.32227 34.1499 3.32154C34.1638 3.31912 34.1809 3.32196 34.2012 3.33008ZM41.6602 2.62109C41.6914 2.83594 41.707 3.26172 41.707 3.89844C41.6094 3.95312 41.502 3.96094 41.3848 3.92188C41.2949 3.54688 41.1309 3.25977 40.8926 3.06055C40.6582 2.85742 40.3887 2.75586 40.084 2.75586C39.7832 2.75586 39.5488 2.83203 39.3809 2.98438C39.2129 3.13672 39.1289 3.34375 39.1289 3.60547C39.1289 3.98047 39.5156 4.3457 40.2891 4.70117C41.4023 5.18164 41.959 5.76562 41.959 6.45312C41.959 6.97266 41.8008 7.38477 41.4844 7.68945C41.168 7.99414 40.7422 8.14648 40.207 8.14648C39.8398 8.14648 39.502 8.11133 39.1934 8.04102C38.8848 7.97461 38.7227 7.94141 38.707 7.94141C38.6523 7.94141 38.582 7.95117 38.4961 7.9707C38.4141 7.99023 38.3516 8.00391 38.3086 8.01172C38.2461 7.73828 38.2031 7.17383 38.1797 6.31836C38.3477 6.27148 38.4746 6.26367 38.5605 6.29492C38.752 7.26367 39.2285 7.74805 39.9902 7.74805C40.6777 7.74805 41.0215 7.4043 41.0215 6.7168C41.0215 6.4043 40.9219 6.16016 40.7227 5.98438C40.5234 5.80859 40.1914 5.61328 39.7266 5.39844C38.7734 4.95703 38.2969 4.43164 38.2969 3.82227C38.2969 3.35742 38.4766 2.99805 38.8359 2.74414C39.1992 2.48633 39.6113 2.35742 40.0723 2.35742C40.4473 2.35742 40.7949 2.40234 41.1152 2.49219C41.4395 2.57812 41.6211 2.62109 41.6602 2.62109ZM57.3984 3.8457C57.3984 3.48633 57.3203 3.22266 57.1641 3.05469C57.0078 2.88672 56.7578 2.80273 56.4141 2.80273C55.8945 2.80273 55.6348 2.92773 55.6348 3.17773V5.11719H56.0449C56.5098 5.11719 56.8516 5.01953 57.0703 4.82422C57.2891 4.62891 57.3984 4.30273 57.3984 3.8457ZM55.6348 6.53516C55.6348 7.01562 55.6719 7.31055 55.7461 7.41992C55.8242 7.52539 56.0156 7.5957 56.3203 7.63086C56.3516 7.66992 56.3672 7.73828 56.3672 7.83594C56.3672 7.92969 56.3516 7.99219 56.3203 8.02344C55.6328 8.00781 55.248 8 55.166 8C54.9434 8 54.4961 8.00781 53.8242 8.02344C53.793 7.99219 53.7773 7.92969 53.7773 7.83594C53.7773 7.73828 53.793 7.66992 53.8242 7.63086C54.207 7.59961 54.4453 7.5293 54.5391 7.41992C54.6367 7.31055 54.6855 7.01562 54.6855 6.53516V3.94531C54.6855 3.46484 54.6367 3.16992 54.5391 3.06055C54.4453 2.94727 54.207 2.87695 53.8242 2.84961C53.793 2.81055 53.7773 2.74414 53.7773 2.65039C53.7773 2.55273 53.793 2.48828 53.8242 2.45703C54.5117 2.47266 54.9551 2.48047 55.1543 2.48047C55.3223 2.48047 55.5449 2.47656 55.8223 2.46875C56.0996 2.46094 56.2812 2.45703 56.3672 2.45703C57.1523 2.45703 57.6895 2.56445 57.9785 2.7793C58.2715 2.99414 58.418 3.34961 58.418 3.8457C58.418 4.24414 58.2812 4.56836 58.0078 4.81836C57.7383 5.06836 57.3965 5.21289 56.9824 5.25195V5.26367C57.166 5.2793 57.3379 5.36719 57.498 5.52734C57.6582 5.6875 57.7773 5.86719 57.8555 6.06641L58.2656 6.96875C58.3867 7.23438 58.502 7.41602 58.6113 7.51367C58.7246 7.60742 58.8887 7.6543 59.1035 7.6543C59.1816 7.75195 59.2051 7.87109 59.1738 8.01172C59.0371 8.08203 58.8066 8.11719 58.4824 8.11719C58.209 8.11719 57.9824 8.0332 57.8027 7.86523C57.623 7.69727 57.4492 7.42578 57.2812 7.05078L56.9531 6.33008C56.8828 6.17773 56.8125 6.05273 56.7422 5.95508C56.6758 5.85352 56.5527 5.75586 56.373 5.66211C56.1934 5.56445 55.9805 5.51562 55.7344 5.51562H55.6348V6.53516ZM61.3418 3.40039C61.6973 2.9707 62.1191 2.75586 62.6074 2.75586C63.1582 2.75586 63.627 2.99414 64.0137 3.4707C64.4043 3.94336 64.5996 4.56836 64.5996 5.3457C64.5996 6.07617 64.4355 6.65625 64.1074 7.08594C63.7793 7.51172 63.3438 7.72461 62.8008 7.72461C62.2148 7.72461 61.7363 7.48633 61.3652 7.00977C60.9941 6.5332 60.8086 5.92773 60.8086 5.19336C60.8086 4.42383 60.9863 3.82617 61.3418 3.40039ZM64.8398 7.26758C65.375 6.70117 65.6426 6.00586 65.6426 5.18164C65.6426 4.34961 65.3574 3.67188 64.7871 3.14844C64.2168 2.62109 63.5273 2.35742 62.7188 2.35742C61.8789 2.35742 61.1758 2.63672 60.6094 3.19531C60.0469 3.75 59.7656 4.46289 59.7656 5.33398C59.7656 6.14258 60.0371 6.80859 60.5801 7.33203C61.123 7.85547 61.8027 8.11719 62.6191 8.11719C63.5645 8.11719 64.3047 7.83398 64.8398 7.26758ZM67.4473 2.48047L70.2598 2.49219C70.5645 2.42969 70.7715 2.39844 70.8809 2.39844C71.0566 2.39844 71.1445 2.4375 71.1445 2.51562C71.1445 2.58594 71.0684 2.73047 70.916 2.94922L67.9395 7.29102C67.8027 7.49023 67.8594 7.58984 68.1094 7.58984H69.5391C69.8594 7.58984 70.0977 7.51953 70.2539 7.37891C70.4102 7.23438 70.5645 6.98633 70.7168 6.63477L70.8691 6.2832L71.1914 6.36523C70.9844 7.06836 70.8574 7.61328 70.8105 8H66.6914C66.5703 8 66.5117 7.96094 66.5156 7.88281C66.5156 7.83594 66.543 7.76758 66.5977 7.67773L69.7559 3.14258C69.8691 2.97461 69.8613 2.89062 69.7324 2.89062H67.9805C67.5234 2.89062 67.1875 3.26562 66.9727 4.01562L66.6562 3.98047C66.7695 3.38672 66.8301 2.8418 66.8379 2.3457C66.8379 2.32227 66.8535 2.31055 66.8848 2.31055C66.9238 2.31836 66.9883 2.34961 67.0781 2.4043C67.1719 2.45508 67.2949 2.48047 67.4473 2.48047Z" fill="black"/>
</svg>
